<svg width="20" height="20" viewBox="0 0 20 20" xmlns="http://www.w3.org/2000/svg">
<path d="M19.9999 14.9201V17.9201C20.0011 18.1986 19.944 18.4743 19.8324 18.7294C19.7209 18.9846 19.5572 19.2137 19.352 19.402C19.1468 19.5902 18.9045 19.7336 18.6407 19.8228C18.3769 19.912 18.0973 19.9452 17.8199 19.9201C14.7428 19.5857 11.7869 18.5342 9.18993 16.8501C6.77376 15.3148 4.72527 13.2663 3.18993 10.8501C1.49991 8.2413 0.448176 5.27109 0.119933 2.1801C0.0949436 1.90356 0.127808 1.62486 0.216434 1.36172C0.305059 1.09859 0.447504 0.856786 0.634699 0.651718C0.821894 0.44665 1.04974 0.282806 1.30372 0.170619C1.55771 0.0584315 1.83227 0.000358432 2.10993 9.69523e-05H5.10993C5.59524 -0.00467949 6.06572 0.167176 6.43369 0.48363C6.80166 0.800084 7.04201 1.23954 7.10993 1.7201C7.23656 2.68016 7.47138 3.62282 7.80993 4.5301C7.94448 4.88802 7.9736 5.27701 7.89384 5.65098C7.81408 6.02494 7.6288 6.36821 7.35993 6.6401L6.08993 7.9101C7.51349 10.4136 9.58639 12.4865 12.0899 13.9101L13.3599 12.6401C13.6318 12.3712 13.9751 12.1859 14.3491 12.1062C14.723 12.0264 15.112 12.0556 15.4699 12.1901C16.3772 12.5286 17.3199 12.7635 18.2799 12.8901C18.7657 12.9586 19.2093 13.2033 19.5265 13.5776C19.8436 13.9519 20.0121 14.4297 19.9999 14.9201Z"/>
</svg>
